Coordinates
version=1
nRows=43
nColumns=12
inDegrees=yes

Units are S.I. units (second, meters, Newtons, ...)
Angles are in degrees

endheader
time	SC_y	SC_z	SC_x	AC_y	AC_z	AC_x	GH_y	GH_z	GH_yy	EL_x	PS_y
       0.0              -18.12         -4.548           56.3          47.38         -15.61          -2.91         -60.43          26.04          17.75           85.6          150.4
   0.02268              -18.12         -4.543           56.3          47.38          -15.6         -2.909         -60.41          26.04          17.73          85.59          150.4
   0.04536              -18.12         -4.537          56.31          47.38          -15.6         -2.907         -60.39          26.03          17.71          85.58          150.4
   0.06804              -18.12         -4.531          56.31          47.38          -15.6         -2.905         -60.37          26.03          17.69          85.56          150.4
   0.09072              -18.12         -4.525          56.32          47.38         -15.59         -2.903         -60.34          26.03          17.67          85.55          150.3
    0.1134              -18.12         -4.518          56.32          47.38         -15.59         -2.901         -60.32          26.03          17.64          85.54          150.3
    0.1361              -18.12          -4.51          56.33          47.39         -15.58         -2.899          -60.3          26.02          17.62          85.53          150.3
    0.1588              -18.12         -4.502          56.33          47.39         -15.58         -2.897         -60.27          26.02          17.59          85.51          150.3
    0.1814              -18.13         -4.494          56.34          47.39         -15.57         -2.895         -60.24          26.02          17.56           85.5          150.3
    0.2041              -18.13         -4.485          56.34          47.39         -15.57         -2.892         -60.21          26.01          17.53          85.48          150.3
    0.2268              -18.13         -4.475          56.35          47.39         -15.56         -2.889         -60.18          26.01           17.5          85.46          150.2
    0.2495              -18.13         -4.464          56.36           47.4         -15.55         -2.886         -60.14           26.0          17.47          85.44          150.2
    0.2722              -18.13         -4.453          56.37           47.4         -15.55         -2.883          -60.1           26.0          17.43          85.42          150.2
    0.2948              -18.13         -4.441          56.38           47.4         -15.54         -2.879         -60.06          25.99          17.39           85.4          150.2
    0.3175              -18.13         -4.428          56.38           47.4         -15.53         -2.876         -60.01          25.99          17.34          85.38          150.1
    0.3402              -18.13         -4.413          56.39          47.41         -15.52         -2.871         -59.96          25.98           17.3          85.35          150.1
    0.3629              -18.13         -4.398          56.41          47.41         -15.51         -2.867         -59.91          25.97          17.24          85.32          150.1
    0.3856              -18.13          -4.38          56.42          47.41          -15.5         -2.862         -59.85          25.97          17.19          85.29          150.1
    0.4083              -18.13         -4.362          56.43          47.42         -15.49         -2.857         -59.79          25.96          17.13          85.26          150.0
    0.4309              -18.13         -4.342          56.45          47.42         -15.48         -2.851         -59.72          25.95          17.06          85.22          150.0
    0.4536              -18.13         -4.319          56.46          47.43         -15.46         -2.845         -59.64          25.94          16.98          85.18          149.9
    0.4763              -18.13         -4.295          56.48          47.43         -15.45         -2.837         -59.56          25.93           16.9          85.13          149.9
     0.499              -18.13         -4.267           56.5          47.44         -15.43          -2.83         -59.47          25.92          16.81          85.08          149.8
    0.5217              -18.13         -4.237          56.52          47.45         -15.41         -2.821         -59.36           25.9          16.71          85.03          149.8
    0.5443              -18.13         -4.204          56.54          47.45         -15.39         -2.811         -59.25          25.89           16.6          84.97          149.7
     0.567              -18.13         -4.167          56.57          47.46         -15.37         -2.801         -59.12          25.87          16.48           84.9          149.6
    0.5897              -18.13         -4.125           56.6          47.47         -15.34         -2.789         -58.98          25.85          16.34          84.82          149.5
    0.6124              -18.13         -4.078          56.64          47.48         -15.31         -2.775         -58.82          25.83          16.18          84.74          149.4
    0.6351              -18.14         -4.025          56.67          47.49         -15.28          -2.76         -58.64          25.81           16.0          84.64          149.3
    0.6577              -18.14         -3.964          56.72          47.51         -15.24         -2.743         -58.43          25.78           15.8          84.53          149.2
    0.6804              -18.14         -3.895          56.77          47.52          -15.2         -2.723          -58.2          25.75          15.57           84.4          149.1
    0.7031              -18.14         -3.816          56.82          47.54         -15.15           -2.7         -57.93          25.72          15.31          84.26          148.9
    0.7258              -18.14         -3.725          56.89          47.56         -15.09         -2.674         -57.62          25.68          15.01          84.09          148.7
    0.7485              -18.14         -3.619          56.96          47.58         -15.03         -2.644         -57.25          25.63          14.65           83.9          148.5
    0.7711              -18.15         -3.495          57.05          47.61         -14.95         -2.608         -56.83          25.58          14.24          83.67          148.3
    0.7938              -18.15         -3.348          57.16          47.64         -14.86         -2.566         -56.33          25.52          13.75          83.41          148.0
    0.8165              -18.15         -3.175          57.28          47.68         -14.75         -2.516         -55.74          25.44          13.18          83.09          147.6
    0.8392              -18.16         -2.966          57.43          47.72         -14.62         -2.456         -55.03          25.35          12.48          82.71          147.2
    0.8619              -18.16         -2.714          57.61          47.78         -14.46         -2.384         -54.17          25.24          11.64          82.25          146.7
    0.8845              -18.17         -2.406          57.83          47.85         -14.27         -2.296         -53.12          25.11          10.62          81.69          146.1
    0.9072              -18.18         -2.026          58.11          47.93         -14.03         -2.187         -51.82          24.94          9.355          80.99          145.3
    0.9299              -18.19         -1.552          58.45          48.03         -13.74         -2.051          -50.2          24.73          7.778          80.13          144.4
    0.9526               -18.2        -0.9549          58.87          48.16         -13.37          -1.88         -48.17          24.47          5.792          79.04          143.2
